<svg width="237" height="32" viewBox="0 0 237 32" fill="none" xmlns="http://www.w3.org/2000/svg">
<path d="M8.48197 23.432C5.99797 23.432 4.23397 21.956 4.30597 19.22L4.62997 6.512H0.885969L4.30597 4.064V1.616L5.92597 0.536V5.36H12.442V6.512H5.92597V18.968C5.92597 21.164 7.32997 22.28 9.09397 22.28C10.966 22.28 12.55 21.452 13.738 19.94C12.298 22.208 10.534 23.432 8.48197 23.432ZM19.4285 23.432C17.3405 23.432 15.2885 22.244 15.2885 19.652C15.2885 16.088 21.7685 13.784 26.8805 11.876V10.148C26.8805 7.628 24.9725 5.576 22.2725 5.576C21.2645 5.576 20.4365 5.828 19.4285 6.404C17.3045 7.628 17.7725 10.976 16.2245 10.976C15.6485 10.976 15.2525 10.508 15.2525 9.896C15.2525 7.736 20.8325 4.676 23.2805 4.676C26.0525 4.676 28.3925 6.728 28.3925 10.004V21.452H31.5245L26.8805 23.432V18.608C24.7205 21.092 22.3085 23.432 19.4285 23.432ZM20.2205 22.424C22.5965 22.424 24.7925 20.3 26.8805 17.96V12.344C21.7325 14.36 16.9445 16.376 16.9445 19.58C16.9445 21.452 18.4925 22.424 20.2205 22.424ZM32.1399 31.784L35.1639 30.596V7.268H32.1399L36.7119 4.676V7.592C38.6919 6.332 41.3199 4.676 43.4799 4.676C48.0879 4.676 51.1479 8.456 51.1479 13.856C51.1479 19.328 47.8359 23.432 42.8679 23.432C40.6719 23.432 38.3679 22.568 36.7119 21.092V30.596L40.2759 31.784H32.1399ZM42.9399 22.928C46.6839 22.928 49.4559 19.292 49.4559 14.18C49.4559 9.104 46.6119 5.576 42.5079 5.576C40.8519 5.576 38.7279 6.872 36.7119 8.132V18.896C37.8639 21.308 40.2039 22.928 42.9399 22.928ZM61.3305 23L64.3545 21.812V7.124H61.3305L65.9025 4.676V7.016C67.7745 5.9 70.1865 4.676 72.0225 4.676C73.9305 4.676 75.6225 5.648 76.4865 7.34C78.3945 6.188 81.1305 4.676 83.1465 4.676C85.9185 4.676 88.1865 6.728 88.1865 10.004V21.812L91.2105 23H83.4345L86.6385 21.812V10.148C86.6385 7.628 84.7305 5.54 82.1385 5.54C80.5905 5.54 78.5745 6.584 76.6665 7.736C76.9185 8.42 77.0625 9.176 77.0625 10.004V21.812L80.2665 23H72.3105L75.5145 21.812V10.148C75.5145 7.628 73.6065 5.54 71.0145 5.54C69.5745 5.54 67.7025 6.476 65.9025 7.52V21.812L69.1065 23H61.3305ZM101.292 23.432C96.4682 23.432 93.1202 19.868 93.1202 14.216C93.1202 8.6 96.5762 4.676 101.184 4.676C105.072 4.676 107.7 7.412 107.7 11.516V11.732H94.9562C94.8482 12.38 94.7762 13.1 94.7762 13.82C94.7762 18.788 97.4402 22.208 101.616 22.208C104.64 22.208 106.944 20.408 108.06 16.988C107.052 21.164 104.64 23.432 101.292 23.432ZM95.0282 11.192H104.712C105.432 11.192 105.828 10.832 105.828 10.076C105.828 7.736 103.848 5.18 101.184 5.18C98.1602 5.18 95.8202 7.592 95.0282 11.192ZM125.166 23.432C122.682 23.432 120.918 21.956 120.99 19.22L121.314 6.512H117.57L120.99 4.064V1.616L122.61 0.536V5.36H129.126V6.512H122.61V18.968C122.61 21.164 124.014 22.28 125.778 22.28C127.65 22.28 129.234 21.452 130.422 19.94C128.982 22.208 127.218 23.432 125.166 23.432ZM140.221 23.432C135.613 23.432 131.581 19.148 131.581 13.892C131.581 8.816 135.613 4.676 140.221 4.676C144.793 4.676 148.825 8.816 148.825 13.892C148.825 19.148 144.793 23.432 140.221 23.432ZM140.221 22.856C144.037 22.856 146.989 19.256 146.989 13.892C146.989 8.852 144.181 5.216 140.221 5.216C136.369 5.216 133.417 8.708 133.417 13.892C133.417 19.076 136.225 22.856 140.221 22.856ZM168.17 23.432C163.562 23.432 159.53 19.148 159.53 13.892C159.53 8.816 163.562 4.676 168.17 4.676C172.742 4.676 176.774 8.816 176.774 13.892C176.774 19.148 172.742 23.432 168.17 23.432ZM168.17 22.856C171.986 22.856 174.938 19.256 174.938 13.892C174.938 8.852 172.13 5.216 168.17 5.216C164.318 5.216 161.366 8.708 161.366 13.892C161.366 19.076 164.174 22.856 168.17 22.856ZM178.531 31.784L181.555 30.596V7.268H178.531L183.103 4.676V7.592C185.083 6.332 187.711 4.676 189.871 4.676C194.479 4.676 197.539 8.456 197.539 13.856C197.539 19.328 194.227 23.432 189.259 23.432C187.062 23.432 184.759 22.568 183.103 21.092V30.596L186.667 31.784H178.531ZM189.331 22.928C193.075 22.928 195.847 19.292 195.847 14.18C195.847 9.104 193.003 5.576 188.899 5.576C187.243 5.576 185.119 6.872 183.103 8.132V18.896C184.255 21.308 186.595 22.928 189.331 22.928ZM208.835 23.432C204.011 23.432 200.663 19.868 200.663 14.216C200.663 8.6 204.119 4.676 208.727 4.676C212.615 4.676 215.243 7.412 215.243 11.516V11.732H202.499C202.391 12.38 202.319 13.1 202.319 13.82C202.319 18.788 204.983 22.208 209.159 22.208C212.183 22.208 214.487 20.408 215.603 16.988C214.595 21.164 212.183 23.432 208.835 23.432ZM202.571 11.192H212.255C212.975 11.192 213.371 10.832 213.371 10.076C213.371 7.736 211.391 5.18 208.727 5.18C205.703 5.18 203.363 7.592 202.571 11.192ZM217.459 23L220.483 21.812V7.124H217.459L222.031 4.676V7.556C223.975 6.368 226.819 4.676 228.907 4.676C231.679 4.676 233.947 6.728 233.947 10.004V21.812L236.971 23H229.195L232.399 21.812V10.148C232.399 7.628 230.491 5.54 227.899 5.54C226.279 5.54 224.047 6.8 222.031 8.06V21.812L225.235 23H217.459Z" fill="white"/>
</svg>
